<?xml version="1.0" standalone="no"?>
<!DOCTYPE svg PUBLIC "-//W3C//DTD SVG 20010904//EN"
 "http://www.w3.org/TR/2001/REC-SVG-20010904/DTD/svg10.dtd">
<svg version="1.0" xmlns="http://www.w3.org/2000/svg"
 width="488.000000pt" height="116.000000pt" viewBox="0 0 488.000000 116.000000"
 preserveAspectRatio="xMidYMid meet">
<metadata>
Created by potrace 1.15, written by Peter Selinger 2001-2017
</metadata>
<g transform="translate(0.000000,116.000000) scale(0.100000,-0.100000)"
fill="#000000" stroke="none">
<path d="M0 580 l0 -580 2440 0 2440 0 0 580 0 580 -2440 0 -2440 0 0 -580z
m2550 70 l0 -230 -35 0 -35 0 0 230 0 230 35 0 35 0 0 -230z m190 93 l0 -137
73 72 c65 64 77 72 111 72 l38 0 -56 -61 c-31 -33 -56 -63 -56 -67 0 -4 27
-49 60 -100 33 -51 60 -95 60 -98 0 -2 -18 -4 -40 -4 -38 0 -41 2 -87 75 l-48
74 -27 -26 c-23 -22 -28 -35 -28 -75 l0 -48 -35 0 -35 0 0 230 0 230 35 0 35
0 0 -137z m-2442 -70 l2 -182 93 -3 92 -3 3 -32 3 -33 -135 0 -136 0 0 221 0
220 38 -3 37 -3 3 -182z m1760 150 l3 -33 -70 0 -71 0 0 -185 0 -185 -40 0
-40 0 0 185 0 185 -65 0 -65 0 0 35 0 35 173 -2 172 -3 3 -32z m1452 2 l0 -35
-120 0 -121 0 3 -57 3 -58 108 -3 107 -3 0 -29 0 -29 -107 -3 -108 -3 -3 -57
-3 -58 126 0 125 0 0 -35 0 -35 -160 0 -160 0 0 220 0 220 155 0 155 0 0 -35z
m-2510 -40 l0 -45 50 0 c47 0 50 -2 50 -25 0 -23 -3 -25 -50 -25 l-50 0 0 -94
c0 -105 8 -120 58 -110 25 5 31 2 37 -17 10 -31 -17 -49 -72 -49 -35 0 -49 6
-68 26 -22 24 -25 36 -27 133 -3 101 -4 106 -25 109 -35 5 -32 52 2 52 23 0
25 4 25 45 0 45 0 45 35 45 35 0 35 0 35 -45z m-222 -55 c39 -24 62 -73 62
-130 l0 -40 -125 0 -126 0 16 -30 c8 -16 24 -34 34 -40 29 -15 88 -12 122 6
24 12 34 13 45 3 24 -20 15 -39 -28 -59 -58 -27 -130 -26 -179 2 -102 57 -103
227 -2 286 51 29 135 30 181 2z m707 8 c28 -12 31 -26 13 -51 -12 -15 -17 -15
-56 -2 -54 19 -92 11 -92 -20 0 -16 9 -26 33 -35 81 -30 109 -45 123 -64 16
-24 18 -69 4 -97 -27 -49 -131 -64 -208 -29 -40 18 -42 21 -31 42 16 32 15 31
40 17 66 -35 143 -28 137 13 -2 16 -20 28 -71 49 -79 32 -96 50 -97 101 0 28
7 42 31 62 25 22 41 26 89 26 33 0 71 -5 85 -12z m861 -22 l34 -34 0 -131 0
-131 -35 0 c-25 0 -35 4 -35 15 0 14 -3 14 -30 0 -16 -8 -51 -15 -78 -15 -67
0 -112 39 -112 97 0 74 46 103 163 103 49 0 57 3 57 18 0 49 -84 71 -146 39
-28 -14 -31 -14 -42 4 -7 10 -12 23 -12 28 0 18 76 40 139 40 59 1 65 -1 97
-33z m1483 16 c41 -20 46 -31 27 -57 -13 -18 -15 -18 -49 -2 -47 23 -89 21
-121 -4 -51 -40 -51 -123 1 -168 22 -19 34 -22 70 -18 24 2 52 12 62 21 16 15
19 14 40 -8 l23 -25 -33 -21 c-46 -28 -71 -33 -130 -28 -53 5 -89 26 -123 72
-16 21 -21 42 -21 91 0 71 17 103 75 143 42 28 129 30 179 4z m361 -4 c58 -40
75 -72 75 -143 0 -49 -5 -70 -21 -91 -36 -49 -70 -67 -132 -72 -126 -9 -209
83 -182 202 18 83 77 126 171 126 42 0 65 -6 89 -22z"/>
<path d="M4029 661 c-24 -24 -29 -38 -29 -76 0 -38 5 -52 29 -76 74 -74 185
-4 164 103 -15 77 -108 104 -164 49z"/>
</g>
</svg>
